$MeshFormat
4.1 0 8
$EndMeshFormat
$PhysicalNames
5
1 3 "HV_TERMINAL"
1 4 "GROUND"
1 5 "TAP_ELECTRODE"
2 1 "AIR"
2 2 "PORCELAIN"
$EndPhysicalNames
$Entities
6 7 2 0
1 0 0.28 0 0 
2 0 0.18 0 0 
3 0.18 0.28 0 0 
4 0.18 0.18 0 0 
5 0 0 0 0 
6 0.18 0 0 0 
1 -1e-07 0.1799999 -1e-07 1e-07 0.2800001 1e-07 0 2 1 -2 
2 -1.000000000028756e-07 0.2799999 -1e-07 0.1800001 0.2800001 1e-07 1 3 2 3 -1 
3 0.1799999 0.1799999 -1e-07 0.1800001 0.2800001 1e-07 0 2 4 -3 
4 -1.000000000028756e-07 0.1799999 -1e-07 0.1800001 0.1800001 1e-07 1 5 2 4 -2 
5 -1e-07 -1.000000000028756e-07 -1e-07 1e-07 0.1800001 1e-07 0 2 2 -5 
6 0.1799999 -1.000000000028756e-07 -1e-07 0.1800001 0.1800001 1e-07 0 2 6 -4 
7 -1.000000000028756e-07 -1e-07 -1e-07 0.1800001 1e-07 1e-07 1 4 2 5 -6 
2 -1.000000000028756e-07 -1.000000000028756e-07 -1e-07 0.1800001 0.1800001 1e-07 1 2 4 5 7 6 4 
3 -1.000000000028756e-07 0.1799999 -1e-07 0.1800001 0.2800001 1e-07 1 1 4 1 -4 3 2 
$EndEntities
$Nodes
15 86 1 86
0 1 0 1
1
0 0.28 0
0 2 0 1
2
0 0.18 0
0 3 0 1
3
0.18 0.28 0
0 4 0 1
4
0.18 0.18 0
0 5 0 1
5
0 0 0
0 6 0 1
6
0.18 0 0
1 1 0 2
7
8
0 0.2466666666666667 0
0 0.2133333333333335 0
1 2 0 5
9
10
11
12
13
0.15 0.28 0
0.12 0.28 0
0.08999999999999993 0.28 0
0.05999999999999979 0.28 0
0.02999999999999983 0.28 0
1 3 0 2
14
15
0.18 0.2133333333333333 0
0.18 0.2466666666666666 0
1 4 0 5
16
17
18
19
20
0.15 0.18 0
0.12 0.18 0
0.08999999999999993 0.18 0
0.05999999999999979 0.18 0
0.02999999999999983 0.18 0
1 5 0 5
21
22
23
24
25
0 0.15 0
0 0.12 0
0 0.08999999999999991 0
0 0.05999999999999978 0
0 0.0299999999999998 0
1 6 0 5
26
27
28
29
30
0.18 0.02999999999999998 0
0.18 0.05999999999999996 0
0.18 0.09000000000000007 0
0.18 0.1200000000000002 0
0.18 0.1500000000000002 0
1 7 0 5
31
32
33
34
35
0.02999999999999998 0 0
0.05999999999999996 0 0
0.09000000000000007 0 0
0.1200000000000002 0 0
0.1500000000000002 0 0
2 2 0 34
36
37
38
39
40
41
42
43
44
45
46
47
48
49
50
51
52
53
54
55
56
57
58
59
60
61
62
63
64
65
66
67
68
69
0.1043683649575819 0.1498473550772746 0
0.07239823035880269 0.02688888374866276 0
0.02583920129596835 0.1047548094716166 0
0.1528483234304245 0.07532802776987024 0
0.04400907427704604 0.1542644284148501 0
0.1354128705004034 0.02499083618352194 0
0.0254031613516749 0.04512712107842609 0
0.1527645437741585 0.1327726394487438 0
0.02586090185029601 0.07498032175834032 0
0.05191795404693273 0.08995585520499266 0
0.05439951827487723 0.1244717206624752 0
0.07794228634059966 0.1049999999999998 0
0.07843742937971901 0.07586283306254848 0
0.1034758477633047 0.09014380551042445 0
0.1039230484541328 0.05999999999999953 0
0.1039694931747322 0.1183391342417163 0
0.1309843147430948 0.1044058596941437 0
0.07228894537749246 0.1530603934973833 0
0.1042341632269631 0.03027578247655031 0
0.0544922192733107 0.05545250789020201 0
0.02458627040172666 0.1347617488944234 0
0.1553491184433534 0.04448104119316026 0
0.1342071961269709 0.1549725654729003 0
0.04473641414518738 0.02496968931475035 0
0.1236359625821819 0.07594146144156122 0
0.1593194363895356 0.1045013053825516 0
0.1252587825553076 0.1320675107869557 0
0.1292339144395765 0.05183619151077726 0
0.0813828410751101 0.129873833887715 0
0.08095671475544976 0.05022114317029959 0
0.1580384757729338 0.02196152422706629 0
0.02196152422706621 0.1580384757729337 0
0.02196152422706625 0.02196152422706621 0
0.1580384757729337 0.1580384757729338 0
2 3 0 17
70
71
72
73
74
75
76
77
78
79
80
81
82
83
84
85
86
0.07499999999999987 0.2059807621135332 0
0.1522478941503922 0.23 0
0.0449999999999998 0.254019237886467 0
0.105 0.2540192378864669 0
0.04499999999999986 0.2059807621135332 0
0.105 0.2059807621135332 0
0.07499999999999986 0.2540192378864669 0
0.1344765075885558 0.2056785236288672 0
0.1344765075885559 0.2543214763711328 0
0.02582384456521004 0.2300000000000001 0
0.0899999999999999 0.23 0
0.05950283863871536 0.23 0
0.1200418086242547 0.23 0
0.02130459522099347 0.2023408023655609 0
0.02130459522099348 0.2576591976344392 0
0.1583980792054914 0.2026083953817244 0
0.1583980792054915 0.2573916046182756 0
$EndNodes
$Elements
5 158 1 158
1 2 1 6
1 3 9 
2 9 10 
3 10 11 
4 11 12 
5 12 13 
6 13 1 
1 4 1 6
7 4 16 
8 16 17 
9 17 18 
10 18 19 
11 19 20 
12 20 2 
1 7 1 6
13 5 31 
14 31 32 
15 32 33 
16 33 34 
17 34 35 
18 35 6 
2 2 2 90
19 46 53 40 
20 55 59 37 
21 46 64 53 
22 37 65 55 
23 52 61 43 
24 52 60 39 
25 39 61 52 
26 43 62 52 
27 39 63 57 
28 60 63 39 
29 42 59 55 
30 36 64 51 
31 50 65 54 
32 40 56 46 
33 51 62 36 
34 54 63 50 
35 53 64 36 
36 54 65 37 
37 44 45 38 
38 33 54 37 
39 18 36 17 
40 23 44 38 
41 44 55 45 
42 33 37 32 
43 18 53 36 
44 24 44 23 
45 30 43 29 
46 34 54 33 
47 45 55 48 
48 49 51 47 
49 19 53 18 
50 23 38 22 
51 28 39 27 
52 45 46 38 
53 45 47 46 
54 48 50 49 
55 25 42 24 
56 48 49 47 
57 35 41 34 
58 49 52 51 
59 45 48 47 
60 20 40 19 
61 42 55 44 
62 42 44 24 
63 40 53 19 
64 41 54 34 
65 41 63 54 
66 17 58 16 
67 22 56 21 
68 27 57 26 
69 32 59 31 
70 46 56 38 
71 36 62 58 
72 43 61 29 
73 49 60 52 
74 28 61 39 
75 38 56 22 
76 39 57 27 
77 36 58 17 
78 37 59 32 
79 47 64 46 
80 55 65 48 
81 16 69 4 
82 26 66 6 
83 31 68 5 
84 2 67 20 
85 21 67 2 
86 5 68 25 
87 6 66 35 
88 4 69 30 
89 29 61 28 
90 50 60 49 
91 57 63 41 
92 52 62 51 
93 58 62 43 
94 51 64 47 
95 48 65 50 
96 58 69 16 
97 56 67 21 
98 59 68 31 
99 57 66 26 
100 25 68 42 
101 30 69 43 
102 35 66 41 
103 20 67 40 
104 50 63 60 
105 43 69 58 
106 40 67 56 
107 41 66 57 
108 42 68 59 
2 3 2 50
109 74 81 79 
110 79 81 72 
111 15 71 14 
112 18 70 19 
113 17 75 18 
114 18 75 70 
115 19 74 20 
116 70 74 19 
117 11 73 10 
118 12 76 11 
119 13 72 12 
120 11 76 73 
121 72 76 12 
122 16 77 17 
123 10 78 9 
124 17 77 75 
125 73 78 10 
126 8 79 7 
127 75 80 70 
128 70 81 74 
129 80 81 70 
130 76 80 73 
131 76 81 80 
132 72 81 76 
133 75 82 80 
134 71 82 77 
135 78 82 71 
136 80 82 73 
137 14 85 4 
138 3 86 15 
139 2 83 8 
140 7 84 1 
141 4 85 16 
142 9 86 3 
143 77 82 75 
144 73 82 78 
145 20 83 2 
146 1 84 13 
147 71 85 14 
148 15 86 71 
149 79 83 74 
150 72 84 79 
151 77 85 71 
152 71 86 78 
153 74 83 20 
154 8 83 79 
155 79 84 7 
156 13 84 72 
157 16 85 77 
158 78 86 9 
$EndElements
